<svg xmlns="http://www.w3.org/2000/svg" viewBox="0 0 240 240" role="img" aria-label="Luna character">
  <defs>
    <linearGradient id="lu-bg" x1="40" x2="206" y1="25" y2="212" gradientUnits="userSpaceOnUse">
      <stop stop-color="#fff0d2"/>
      <stop offset="1" stop-color="#f7fbf8"/>
    </linearGradient>
    <linearGradient id="lu-robe" x1="73" x2="168" y1="123" y2="218" gradientUnits="userSpaceOnUse">
      <stop stop-color="#d7992d"/>
      <stop offset="1" stop-color="#7a5410"/>
    </linearGradient>
    <filter id="lu-shadow" x="-20%" y="-20%" width="140%" height="150%">
      <feDropShadow dx="0" dy="8" stdDeviation="7" flood-color="#172027" flood-opacity=".13"/>
    </filter>
  </defs>
  <circle cx="120" cy="119" r="94" fill="url(#lu-bg)"/>
  <g opacity=".58">
    <path fill="none" stroke="#b97818" stroke-dasharray="3 7" stroke-linecap="round" stroke-width="2" d="M48 132c30-48 107-58 146-19"/>
    <circle cx="65" cy="116" r="4" fill="#b97818"/>
    <circle cx="182" cy="105" r="5" fill="#b97818"/>
    <circle cx="140" cy="65" r="3" fill="#b97818"/>
  </g>
  <g filter="url(#lu-shadow)">
    <g>
      <animateTransform attributeName="transform" type="translate" values="0 0; 0 -4; 0 0" dur="4.1s" begin=".45s" repeatCount="indefinite"/>
      <path fill="url(#lu-robe)" d="M69 205c5-45 25-69 51-69s46 24 51 69H69Z"/>
      <path fill="#fff0d2" d="M99 140h42l-9 65h-24l-9-65Z" opacity=".74"/>
      <path fill="#7a5410" d="M91 157c14 9 44 9 58 0l-8 48H99l-8-48Z" opacity=".28"/>
      <ellipse cx="120" cy="112" rx="39" ry="42" fill="#ffe2c3"/>
      <path fill="#7b5524" d="M90 103c-2-28 17-48 44-42 25 5 37 27 30 54-7-16-20-22-37-22-20 0-31 4-37 10Z"/>
      <path fill="#7b5524" d="M134 70c22 9 31 26 27 55 15-15 18-38 3-54-8-8-19-12-30-1Z"/>
      <ellipse cx="106" cy="114" rx="3.4" ry="3.2" fill="#172027">
        <animate attributeName="ry" values="3.2;.35;3.2" keyTimes="0;.05;.1" dur="5s" begin="1.6s" repeatCount="indefinite"/>
      </ellipse>
      <ellipse cx="136" cy="114" rx="3.4" ry="3.2" fill="#172027">
        <animate attributeName="ry" values="3.2;.35;3.2" keyTimes="0;.05;.1" dur="5s" begin="1.6s" repeatCount="indefinite"/>
      </ellipse>
      <path fill="none" stroke="#8d6041" stroke-linecap="round" stroke-width="3" d="M109 128c7 5 17 5 24 0"/>
    </g>
    <g>
      <animateTransform attributeName="transform" type="rotate" values="-8 181 76; 8 181 76; -8 181 76" dur="5s" repeatCount="indefinite"/>
      <path fill="#ffd875" d="M190 43c-22 7-33 29-25 50 7 20 27 31 48 26-7 8-17 14-29 16-27 5-52-12-58-39-5-27 12-52 39-58 9-2 17 0 25 5Z"/>
      <circle cx="184" cy="78" r="6" fill="#fff8ed" opacity=".78"/>
    </g>
  </g>
</svg>
