<svg xmlns="http://www.w3.org/2000/svg" viewBox="0 0 240 240" role="img" aria-label="Cheongwoon character">
  <defs>
    <linearGradient id="cw-bg" x1="34" x2="202" y1="26" y2="210" gradientUnits="userSpaceOnUse">
      <stop stop-color="#e4f5ef"/>
      <stop offset="1" stop-color="#fff8ed"/>
    </linearGradient>
    <linearGradient id="cw-robe" x1="80" x2="160" y1="118" y2="218" gradientUnits="userSpaceOnUse">
      <stop stop-color="#168a6d"/>
      <stop offset="1" stop-color="#0a5f4e"/>
    </linearGradient>
    <filter id="cw-shadow" x="-20%" y="-20%" width="140%" height="150%">
      <feDropShadow dx="0" dy="8" stdDeviation="7" flood-color="#172027" flood-opacity=".13"/>
    </filter>
  </defs>
  <circle cx="120" cy="119" r="94" fill="url(#cw-bg)"/>
  <path fill="#c5eadb" d="M41 153c22 22 51 35 83 34 34-1 62-17 81-41 6 41-25 70-81 70-58 0-89-25-83-63Z" opacity=".75"/>
  <g filter="url(#cw-shadow)">
    <g>
      <animateTransform attributeName="transform" type="translate" values="0 0; 0 -4; 0 0" dur="4.2s" repeatCount="indefinite"/>
      <path fill="url(#cw-robe)" d="M70 205c5-46 24-70 50-70s45 24 50 70H70Z"/>
      <path fill="#e4f5ef" d="M99 139h42l-10 65h-22l-10-65Z" opacity=".72"/>
      <path fill="#0a5f4e" d="M93 158c13 10 39 10 53 0l-7 48H100l-7-48Z" opacity=".35"/>
      <ellipse cx="120" cy="111" rx="39" ry="42" fill="#ffe2c3"/>
      <path fill="#26342f" d="M83 101c4-31 26-47 55-38 22 7 27 26 20 46-10-13-25-15-44-13-14 2-23 4-31 5Z"/>
      <path fill="#26342f" d="M95 79c4-16 21-27 37-24 13 2 23 11 27 24-18-7-42-7-64 0Z"/>
      <ellipse cx="105" cy="113" rx="3.4" ry="3.2" fill="#172027">
        <animate attributeName="ry" values="3.2;.35;3.2" keyTimes="0;.05;.1" dur="5.1s" begin=".7s" repeatCount="indefinite"/>
      </ellipse>
      <ellipse cx="135" cy="113" rx="3.4" ry="3.2" fill="#172027">
        <animate attributeName="ry" values="3.2;.35;3.2" keyTimes="0;.05;.1" dur="5.1s" begin=".7s" repeatCount="indefinite"/>
      </ellipse>
      <path fill="none" stroke="#8d6041" stroke-linecap="round" stroke-width="3" d="M109 127c7 5 16 5 23 0"/>
    </g>
    <g>
      <animateTransform attributeName="transform" type="translate" values="0 0; 0 -6; 0 0" dur="3.5s" repeatCount="indefinite"/>
      <rect width="45" height="56" x="44" y="82" fill="#fffdf8" stroke="#0f7a62" stroke-width="4" rx="9" transform="rotate(-8 66.5 110)"/>
      <path fill="none" stroke="#0f7a62" stroke-linecap="round" stroke-width="3" d="M57 99h20M56 113h22M57 127h13" transform="rotate(-8 66.5 110)"/>
      <circle cx="81" cy="135" r="11" fill="#0f7a62" opacity=".88"/>
      <path fill="none" stroke="#fffdf8" stroke-linecap="round" stroke-width="3" d="M75 135h12"/>
    </g>
  </g>
</svg>
