<svg xmlns="http://www.w3.org/2000/svg" viewBox="0 0 240 240" role="img" aria-label="Taeeul character">
  <defs>
    <linearGradient id="te-bg" x1="39" x2="204" y1="25" y2="211" gradientUnits="userSpaceOnUse">
      <stop stop-color="#e7effa"/>
      <stop offset="1" stop-color="#fff8ed"/>
    </linearGradient>
    <linearGradient id="te-robe" x1="71" x2="167" y1="125" y2="216" gradientUnits="userSpaceOnUse">
      <stop stop-color="#4d7fc2"/>
      <stop offset="1" stop-color="#284f86"/>
    </linearGradient>
    <filter id="te-shadow" x="-20%" y="-20%" width="140%" height="150%">
      <feDropShadow dx="0" dy="8" stdDeviation="7" flood-color="#172027" flood-opacity=".13"/>
    </filter>
  </defs>
  <circle cx="120" cy="119" r="94" fill="url(#te-bg)"/>
  <path fill="#d8e6f8" d="M44 161c21 19 48 29 79 28 33-1 59-13 79-35 4 39-27 62-79 62-55 0-85-20-79-55Z" opacity=".85"/>
  <g opacity=".65">
    <path fill="none" stroke="#345f9f" stroke-linecap="round" stroke-width="2" d="M48 73h31v31H48zM166 55h31v31h-31zM161 147h36v36h-36z"/>
    <path fill="none" stroke="#345f9f" stroke-dasharray="4 6" stroke-linecap="round" stroke-width="2" d="M80 89c35-23 63-23 86-16M83 103c33 35 59 47 78 60"/>
  </g>
  <g filter="url(#te-shadow)">
    <g>
      <animateTransform attributeName="transform" type="translate" values="0 0; 0 -5; 0 0" dur="4.4s" begin=".25s" repeatCount="indefinite"/>
      <path fill="url(#te-robe)" d="M69 205c5-45 25-69 51-69s46 24 51 69H69Z"/>
      <path fill="#edf5ff" d="M101 140h38l-7 65h-24l-7-65Z" opacity=".76"/>
      <path fill="#284f86" d="M91 157c14 9 44 9 58 0l-8 48H99l-8-48Z" opacity=".32"/>
      <ellipse cx="120" cy="112" rx="39" ry="42" fill="#ffe2c3"/>
      <path fill="#243f72" d="M82 100 120 60l39 40-13 9H94l-12-9Z"/>
      <path fill="#345f9f" d="M101 65c12-14 27-14 39 0l-20 21-19-21Z"/>
      <path fill="#243f72" d="M91 96h58v18c-13-9-46-9-58 0V96Z"/>
      <ellipse cx="106" cy="114" rx="3.4" ry="3.1" fill="#172027">
        <animate attributeName="ry" values="3.1;.35;3.1" keyTimes="0;.05;.1" dur="5.4s" begin="1.2s" repeatCount="indefinite"/>
      </ellipse>
      <ellipse cx="136" cy="114" rx="3.4" ry="3.1" fill="#172027">
        <animate attributeName="ry" values="3.1;.35;3.1" keyTimes="0;.05;.1" dur="5.4s" begin="1.2s" repeatCount="indefinite"/>
      </ellipse>
      <path fill="none" stroke="#8d6041" stroke-linecap="round" stroke-width="3" d="M110 128c6 4 15 4 21 0"/>
    </g>
    <g>
      <animateTransform attributeName="transform" type="rotate" values="-4 180 103; 5 180 103; -4 180 103" dur="5.2s" repeatCount="indefinite"/>
      <circle cx="181" cy="103" r="29" fill="#fffdf8" stroke="#345f9f" stroke-width="4"/>
      <path fill="none" stroke="#345f9f" stroke-linecap="round" stroke-width="3" d="M181 78v50M156 103h50M164 87l35 34M198 87l-35 34"/>
      <circle cx="181" cy="103" r="6" fill="#345f9f"/>
    </g>
  </g>
</svg>
